<svg xmlns="http://www.w3.org/2000/svg" width="1080" height="680" viewBox="0 0 1080 680">
<rect width="100%" height="100%" fill="#ffffff"/>
<text x="90" y="28" font-size="18" font-family="Arial, sans-serif" font-weight="700">variance_mean by Environment</text>
<rect x="90" y="48" width="870" height="467" fill="#f8fafc" stroke="#cbd5e1"/>
<circle cx="316.87" cy="323.12" r="2.0" fill="#2364aa" fill-opacity="0.18" /><circle cx="337.24" cy="367.68" r="2.0" fill="#2364aa" fill-opacity="0.18" /><circle cx="328.14" cy="415.89" r="2.0" fill="#2364aa" fill-opacity="0.18" /><circle cx="286.92" cy="442.58" r="2.0" fill="#2364aa" fill-opacity="0.18" /><circle cx="292.54" cy="381.94" r="2.0" fill="#2364aa" fill-opacity="0.18" /><circle cx="335.47" cy="352.18" r="2.0" fill="#2364aa" fill-opacity="0.18" /><circle cx="270.45" cy="454.98" r="2.0" fill="#2364aa" fill-opacity="0.18" /><circle cx="331.55" cy="372.84" r="2.0" fill="#2364aa" fill-opacity="0.18" /><circle cx="329.74" cy="338.60" r="2.0" fill="#2364aa" fill-opacity="0.18" /><circle cx="305.10" cy="404.07" r="2.0" fill="#2364aa" fill-opacity="0.18" /><circle cx="292.75" cy="337.27" r="2.0" fill="#2364aa" fill-opacity="0.18" /><circle cx="290.91" cy="416.23" r="2.0" fill="#2364aa" fill-opacity="0.18" /><circle cx="289.14" cy="389.46" r="2.0" fill="#2364aa" fill-opacity="0.18" /><circle cx="303.39" cy="327.65" r="2.0" fill="#2364aa" fill-opacity="0.18" /><circle cx="307.84" cy="394.02" r="2.0" fill="#2364aa" fill-opacity="0.18" /><circle cx="311.51" cy="427.93" r="2.0" fill="#2364aa" fill-opacity="0.18" /><circle cx="344.60" cy="387.06" r="2.0" fill="#2364aa" fill-opacity="0.18" /><circle cx="329.41" cy="452.67" r="2.0" fill="#2364aa" fill-opacity="0.18" /><circle cx="316.65" cy="403.05" r="2.0" fill="#2364aa" fill-opacity="0.18" /><circle cx="344.11" cy="333.89" r="2.0" fill="#2364aa" fill-opacity="0.18" /><circle cx="286.18" cy="347.63" r="2.0" fill="#2364aa" fill-opacity="0.18" /><circle cx="282.06" cy="452.06" r="2.0" fill="#2364aa" fill-opacity="0.18" /><circle cx="315.93" cy="419.35" r="2.0" fill="#2364aa" fill-opacity="0.18" /><circle cx="273.35" cy="380.42" r="2.0" fill="#2364aa" fill-opacity="0.18" /><circle cx="272.73" cy="398.25" r="2.0" fill="#2364aa" fill-opacity="0.18" /><circle cx="308.61" cy="414.15" r="2.0" fill="#2364aa" fill-opacity="0.18" /><circle cx="304.97" cy="307.38" r="2.0" fill="#2364aa" fill-opacity="0.18" /><circle cx="338.74" cy="336.08" r="2.0" fill="#2364aa" fill-opacity="0.18" /><circle cx="317.18" cy="365.46" r="2.0" fill="#2364aa" fill-opacity="0.18" /><circle cx="308.56" cy="412.87" r="2.0" fill="#2364aa" fill-opacity="0.18" /><circle cx="307.27" cy="375.52" r="2.0" fill="#2364aa" fill-opacity="0.18" /><circle cx="288.59" cy="399.06" r="2.0" fill="#2364aa" fill-opacity="0.18" /><circle cx="270.94" cy="392.60" r="2.0" fill="#2364aa" fill-opacity="0.18" /><circle cx="284.47" cy="392.31" r="2.0" fill="#2364aa" fill-opacity="0.18" /><circle cx="321.88" cy="339.76" r="2.0" fill="#2364aa" fill-opacity="0.18" /><circle cx="285.08" cy="379.22" r="2.0" fill="#2364aa" fill-opacity="0.18" /><circle cx="297.73" cy="437.56" r="2.0" fill="#2364aa" fill-opacity="0.18" /><circle cx="270.34" cy="441.13" r="2.0" fill="#2364aa" fill-opacity="0.18" /><circle cx="332.21" cy="321.87" r="2.0" fill="#2364aa" fill-opacity="0.18" /><circle cx="281.63" cy="343.08" r="2.0" fill="#2364aa" fill-opacity="0.18" /><circle cx="290.10" cy="332.93" r="2.0" fill="#2364aa" fill-opacity="0.18" /><circle cx="335.98" cy="386.67" r="2.0" fill="#2364aa" fill-opacity="0.18" /><circle cx="308.23" cy="386.06" r="2.0" fill="#2364aa" fill-opacity="0.18" /><circle cx="333.49" cy="384.40" r="2.0" fill="#2364aa" fill-opacity="0.18" /><circle cx="317.96" cy="346.21" r="2.0" fill="#2364aa" fill-opacity="0.18" /><circle cx="325.60" cy="420.83" r="2.0" fill="#2364aa" fill-opacity="0.18" /><circle cx="276.91" cy="378.59" r="2.0" fill="#2364aa" fill-opacity="0.18" /><circle cx="310.58" cy="376.07" r="2.0" fill="#2364aa" fill-opacity="0.18" /><circle cx="308.08" cy="447.47" r="2.0" fill="#2364aa" fill-opacity="0.18" /><circle cx="335.31" cy="440.67" r="2.0" fill="#2364aa" fill-opacity="0.18" /><circle cx="297.11" cy="417.16" r="2.0" fill="#2364aa" fill-opacity="0.18" /><circle cx="314.85" cy="416.58" r="2.0" fill="#2364aa" fill-opacity="0.18" /><circle cx="274.50" cy="479.36" r="2.0" fill="#2364aa" fill-opacity="0.18" /><circle cx="299.09" cy="319.87" r="2.0" fill="#2364aa" fill-opacity="0.18" /><circle cx="294.25" cy="440.32" r="2.0" fill="#2364aa" fill-opacity="0.18" /><circle cx="281.31" cy="435.37" r="2.0" fill="#2364aa" fill-opacity="0.18" /><circle cx="331.19" cy="285.07" r="2.0" fill="#2364aa" fill-opacity="0.18" /><circle cx="298.47" cy="324.14" r="2.0" fill="#2364aa" fill-opacity="0.18" /><circle cx="343.35" cy="326.84" r="2.0" fill="#2364aa" fill-opacity="0.18" /><circle cx="314.24" cy="385.58" r="2.0" fill="#2364aa" fill-opacity="0.18" /><circle cx="315.37" cy="363.61" r="2.0" fill="#2364aa" fill-opacity="0.18" /><circle cx="317.83" cy="443.94" r="2.0" fill="#2364aa" fill-opacity="0.18" /><circle cx="320.71" cy="342.35" r="2.0" fill="#2364aa" fill-opacity="0.18" /><circle cx="281.35" cy="383.06" r="2.0" fill="#2364aa" fill-opacity="0.18" /><circle cx="303.03" cy="340.45" r="2.0" fill="#2364aa" fill-opacity="0.18" /><circle cx="288.00" cy="335.46" r="2.0" fill="#2364aa" fill-opacity="0.18" /><circle cx="300.20" cy="446.05" r="2.0" fill="#2364aa" fill-opacity="0.18" /><circle cx="277.30" cy="392.27" r="2.0" fill="#2364aa" fill-opacity="0.18" /><circle cx="342.53" cy="355.91" r="2.0" fill="#2364aa" fill-opacity="0.18" /><circle cx="286.16" cy="377.82" r="2.0" fill="#2364aa" fill-opacity="0.18" /><circle cx="320.36" cy="425.89" r="2.0" fill="#2364aa" fill-opacity="0.18" /><circle cx="292.56" cy="376.16" r="2.0" fill="#2364aa" fill-opacity="0.18" /><circle cx="335.51" cy="425.19" r="2.0" fill="#2364aa" fill-opacity="0.18" /><circle cx="319.65" cy="372.84" r="2.0" fill="#2364aa" fill-opacity="0.18" /><circle cx="279.92" cy="385.27" r="2.0" fill="#2364aa" fill-opacity="0.18" /><circle cx="333.34" cy="436.06" r="2.0" fill="#2364aa" fill-opacity="0.18" /><circle cx="340.82" cy="404.45" r="2.0" fill="#2364aa" fill-opacity="0.18" /><circle cx="337.75" cy="324.34" r="2.0" fill="#2364aa" fill-opacity="0.18" /><circle cx="312.72" cy="338.36" r="2.0" fill="#2364aa" fill-opacity="0.18" /><circle cx="280.95" cy="394.87" r="2.0" fill="#2364aa" fill-opacity="0.18" /><circle cx="284.47" cy="449.64" r="2.0" fill="#2364aa" fill-opacity="0.18" /><circle cx="339.54" cy="415.25" r="2.0" fill="#2364aa" fill-opacity="0.18" /><circle cx="311.42" cy="464.38" r="2.0" fill="#2364aa" fill-opacity="0.18" /><circle cx="283.58" cy="444.64" r="2.0" fill="#2364aa" fill-opacity="0.18" /><circle cx="336.26" cy="432.85" r="2.0" fill="#2364aa" fill-opacity="0.18" /><circle cx="318.10" cy="409.65" r="2.0" fill="#2364aa" fill-opacity="0.18" /><circle cx="312.72" cy="421.89" r="2.0" fill="#2364aa" fill-opacity="0.18" /><circle cx="298.24" cy="409.17" r="2.0" fill="#2364aa" fill-opacity="0.18" /><circle cx="300.83" cy="440.76" r="2.0" fill="#2364aa" fill-opacity="0.18" /><circle cx="287.99" cy="431.71" r="2.0" fill="#2364aa" fill-opacity="0.18" /><circle cx="272.91" cy="364.32" r="2.0" fill="#2364aa" fill-opacity="0.18" /><circle cx="335.67" cy="426.26" r="2.0" fill="#2364aa" fill-opacity="0.18" /><circle cx="305.08" cy="412.36" r="2.0" fill="#2364aa" fill-opacity="0.18" /><circle cx="311.07" cy="422.39" r="2.0" fill="#2364aa" fill-opacity="0.18" /><line x1="307.50" y1="489.98" x2="307.50" y2="249.52" stroke="#334155" stroke-width="1.4"/><line x1="291.50" y1="489.98" x2="323.50" y2="489.98" stroke="#334155" stroke-width="1.4"/><line x1="291.50" y1="249.52" x2="323.50" y2="249.52" stroke="#334155" stroke-width="1.4"/><rect x="283.50" y="354.76" width="48.00" height="70.80" fill="#2364aa" fill-opacity="0.34" stroke="#111827"/><line x1="283.50" y1="387.03" x2="331.50" y2="387.03" stroke="#111827" stroke-width="2"/><text transform="translate(302.50 646) rotate(-45)" font-size="11" font-family="Arial, sans-serif">Soil (n=941)</text><circle cx="729.18" cy="138.02" r="2.0" fill="#f25f5c" fill-opacity="0.18" /><circle cx="761.32" cy="146.50" r="2.0" fill="#f25f5c" fill-opacity="0.18" /><circle cx="706.95" cy="142.71" r="2.0" fill="#f25f5c" fill-opacity="0.18" /><circle cx="732.93" cy="154.81" r="2.0" fill="#f25f5c" fill-opacity="0.18" /><circle cx="707.33" cy="147.47" r="2.0" fill="#f25f5c" fill-opacity="0.18" /><circle cx="714.26" cy="163.11" r="2.0" fill="#f25f5c" fill-opacity="0.18" /><circle cx="777.48" cy="144.83" r="2.0" fill="#f25f5c" fill-opacity="0.18" /><circle cx="754.31" cy="139.60" r="2.0" fill="#f25f5c" fill-opacity="0.18" /><circle cx="737.13" cy="160.38" r="2.0" fill="#f25f5c" fill-opacity="0.18" /><circle cx="744.28" cy="145.21" r="2.0" fill="#f25f5c" fill-opacity="0.18" /><circle cx="770.42" cy="146.25" r="2.0" fill="#f25f5c" fill-opacity="0.18" /><circle cx="730.83" cy="95.30" r="2.0" fill="#f25f5c" fill-opacity="0.18" /><circle cx="749.26" cy="178.31" r="2.0" fill="#f25f5c" fill-opacity="0.18" /><circle cx="756.25" cy="147.95" r="2.0" fill="#f25f5c" fill-opacity="0.18" /><circle cx="731.67" cy="153.11" r="2.0" fill="#f25f5c" fill-opacity="0.18" /><circle cx="743.93" cy="143.82" r="2.0" fill="#f25f5c" fill-opacity="0.18" /><circle cx="762.36" cy="142.45" r="2.0" fill="#f25f5c" fill-opacity="0.18" /><circle cx="773.14" cy="142.72" r="2.0" fill="#f25f5c" fill-opacity="0.18" /><circle cx="716.37" cy="155.66" r="2.0" fill="#f25f5c" fill-opacity="0.18" /><circle cx="774.95" cy="133.75" r="2.0" fill="#f25f5c" fill-opacity="0.18" /><circle cx="705.45" cy="146.61" r="2.0" fill="#f25f5c" fill-opacity="0.18" /><circle cx="761.44" cy="163.96" r="2.0" fill="#f25f5c" fill-opacity="0.18" /><circle cx="765.75" cy="137.18" r="2.0" fill="#f25f5c" fill-opacity="0.18" /><circle cx="715.30" cy="145.01" r="2.0" fill="#f25f5c" fill-opacity="0.18" /><circle cx="736.43" cy="145.02" r="2.0" fill="#f25f5c" fill-opacity="0.18" /><circle cx="766.11" cy="146.99" r="2.0" fill="#f25f5c" fill-opacity="0.18" /><circle cx="706.13" cy="163.13" r="2.0" fill="#f25f5c" fill-opacity="0.18" /><circle cx="752.12" cy="142.96" r="2.0" fill="#f25f5c" fill-opacity="0.18" /><circle cx="764.44" cy="162.87" r="2.0" fill="#f25f5c" fill-opacity="0.18" /><circle cx="743.47" cy="157.01" r="2.0" fill="#f25f5c" fill-opacity="0.18" /><circle cx="759.41" cy="142.58" r="2.0" fill="#f25f5c" fill-opacity="0.18" /><circle cx="722.01" cy="137.75" r="2.0" fill="#f25f5c" fill-opacity="0.18" /><circle cx="719.93" cy="145.95" r="2.0" fill="#f25f5c" fill-opacity="0.18" /><circle cx="732.25" cy="149.39" r="2.0" fill="#f25f5c" fill-opacity="0.18" /><circle cx="718.49" cy="147.77" r="2.0" fill="#f25f5c" fill-opacity="0.18" /><circle cx="730.97" cy="155.66" r="2.0" fill="#f25f5c" fill-opacity="0.18" /><circle cx="776.06" cy="153.57" r="2.0" fill="#f25f5c" fill-opacity="0.18" /><circle cx="747.99" cy="169.36" r="2.0" fill="#f25f5c" fill-opacity="0.18" /><circle cx="730.52" cy="152.10" r="2.0" fill="#f25f5c" fill-opacity="0.18" /><circle cx="725.39" cy="144.98" r="2.0" fill="#f25f5c" fill-opacity="0.18" /><circle cx="776.35" cy="145.03" r="2.0" fill="#f25f5c" fill-opacity="0.18" /><circle cx="738.34" cy="137.27" r="2.0" fill="#f25f5c" fill-opacity="0.18" /><circle cx="778.47" cy="147.43" r="2.0" fill="#f25f5c" fill-opacity="0.18" /><circle cx="743.66" cy="134.56" r="2.0" fill="#f25f5c" fill-opacity="0.18" /><circle cx="744.08" cy="146.92" r="2.0" fill="#f25f5c" fill-opacity="0.18" /><circle cx="772.19" cy="86.36" r="2.0" fill="#f25f5c" fill-opacity="0.18" /><circle cx="760.68" cy="132.84" r="2.0" fill="#f25f5c" fill-opacity="0.18" /><circle cx="748.54" cy="156.69" r="2.0" fill="#f25f5c" fill-opacity="0.18" /><circle cx="737.01" cy="163.61" r="2.0" fill="#f25f5c" fill-opacity="0.18" /><circle cx="770.82" cy="150.73" r="2.0" fill="#f25f5c" fill-opacity="0.18" /><circle cx="735.88" cy="146.97" r="2.0" fill="#f25f5c" fill-opacity="0.18" /><circle cx="774.16" cy="195.22" r="2.0" fill="#f25f5c" fill-opacity="0.18" /><circle cx="710.21" cy="135.70" r="2.0" fill="#f25f5c" fill-opacity="0.18" /><circle cx="737.26" cy="141.45" r="2.0" fill="#f25f5c" fill-opacity="0.18" /><circle cx="743.96" cy="139.88" r="2.0" fill="#f25f5c" fill-opacity="0.18" /><circle cx="776.27" cy="139.97" r="2.0" fill="#f25f5c" fill-opacity="0.18" /><circle cx="723.85" cy="149.74" r="2.0" fill="#f25f5c" fill-opacity="0.18" /><circle cx="765.42" cy="178.88" r="2.0" fill="#f25f5c" fill-opacity="0.18" /><circle cx="755.71" cy="165.23" r="2.0" fill="#f25f5c" fill-opacity="0.18" /><circle cx="758.76" cy="142.64" r="2.0" fill="#f25f5c" fill-opacity="0.18" /><circle cx="752.21" cy="143.75" r="2.0" fill="#f25f5c" fill-opacity="0.18" /><circle cx="777.81" cy="143.93" r="2.0" fill="#f25f5c" fill-opacity="0.18" /><circle cx="729.97" cy="141.39" r="2.0" fill="#f25f5c" fill-opacity="0.18" /><circle cx="734.88" cy="175.42" r="2.0" fill="#f25f5c" fill-opacity="0.18" /><circle cx="720.25" cy="135.04" r="2.0" fill="#f25f5c" fill-opacity="0.18" /><circle cx="708.86" cy="145.24" r="2.0" fill="#f25f5c" fill-opacity="0.18" /><circle cx="721.00" cy="153.60" r="2.0" fill="#f25f5c" fill-opacity="0.18" /><circle cx="773.61" cy="137.37" r="2.0" fill="#f25f5c" fill-opacity="0.18" /><circle cx="767.97" cy="159.15" r="2.0" fill="#f25f5c" fill-opacity="0.18" /><circle cx="713.48" cy="153.93" r="2.0" fill="#f25f5c" fill-opacity="0.18" /><circle cx="750.27" cy="172.93" r="2.0" fill="#f25f5c" fill-opacity="0.18" /><circle cx="740.94" cy="144.88" r="2.0" fill="#f25f5c" fill-opacity="0.18" /><circle cx="749.59" cy="149.73" r="2.0" fill="#f25f5c" fill-opacity="0.18" /><circle cx="754.43" cy="150.87" r="2.0" fill="#f25f5c" fill-opacity="0.18" /><line x1="742.50" y1="172.93" x2="742.50" y2="122.62" stroke="#334155" stroke-width="1.4"/><line x1="726.50" y1="172.93" x2="758.50" y2="172.93" stroke="#334155" stroke-width="1.4"/><line x1="726.50" y1="122.62" x2="758.50" y2="122.62" stroke="#334155" stroke-width="1.4"/><rect x="718.50" y="141.40" width="48.00" height="12.75" fill="#3da35d" fill-opacity="0.34" stroke="#111827"/><line x1="718.50" y1="146.08" x2="766.50" y2="146.08" stroke="#111827" stroke-width="2"/><text transform="translate(737.50 646) rotate(-45)" font-size="11" font-family="Arial, sans-serif">Marine (n=745)</text><circle cx="970" cy="80" r="4" fill="#2364aa" fill-opacity="0.5"/><text x="982" y="84" font-size="12" font-family="Arial, sans-serif">Soil jitter, 10%</text><circle cx="970" cy="102" r="4" fill="#f25f5c" fill-opacity="0.5"/><text x="982" y="106" font-size="12" font-family="Arial, sans-serif">Marine jitter, 10%</text>
<line x1="90" y1="515" x2="960" y2="515" stroke="#334155"/>
<line x1="90" y1="48" x2="90" y2="515" stroke="#334155"/>
<text x="28" y="77.02" font-size="12" font-family="Arial, sans-serif">0.03052</text>
<text x="28" y="493.98" font-size="12" font-family="Arial, sans-serif">0.02078</text>
<text transform="translate(24 323.5) rotate(-90)" font-size="13" font-family="Arial, sans-serif">variance_mean</text>
</svg>
