<svg xmlns="http://www.w3.org/2000/svg" width="1080" height="680" viewBox="0 0 1080 680">
<rect width="100%" height="100%" fill="#ffffff"/>
<text x="90" y="28" font-size="18" font-family="Arial, sans-serif" font-weight="700">read_spread_l2 by Project</text>
<rect x="90" y="48" width="870" height="467" fill="#f8fafc" stroke="#cbd5e1"/>
<circle cx="153.74" cy="314.40" r="2.0" fill="#2364aa" fill-opacity="0.18" /><circle cx="174.12" cy="365.11" r="2.0" fill="#2364aa" fill-opacity="0.18" /><circle cx="165.02" cy="400.30" r="2.0" fill="#2364aa" fill-opacity="0.18" /><circle cx="123.80" cy="355.34" r="2.0" fill="#2364aa" fill-opacity="0.18" /><circle cx="129.41" cy="471.78" r="2.0" fill="#2364aa" fill-opacity="0.18" /><circle cx="172.35" cy="426.40" r="2.0" fill="#2364aa" fill-opacity="0.18" /><circle cx="107.33" cy="317.14" r="2.0" fill="#2364aa" fill-opacity="0.18" /><circle cx="168.43" cy="404.95" r="2.0" fill="#2364aa" fill-opacity="0.18" /><circle cx="166.62" cy="317.96" r="2.0" fill="#2364aa" fill-opacity="0.18" /><circle cx="141.97" cy="340.12" r="2.0" fill="#2364aa" fill-opacity="0.18" /><circle cx="129.63" cy="432.35" r="2.0" fill="#2364aa" fill-opacity="0.18" /><circle cx="127.78" cy="314.45" r="2.0" fill="#2364aa" fill-opacity="0.18" /><circle cx="126.02" cy="377.89" r="2.0" fill="#2364aa" fill-opacity="0.18" /><circle cx="140.26" cy="319.20" r="2.0" fill="#2364aa" fill-opacity="0.18" /><circle cx="144.72" cy="330.98" r="2.0" fill="#2364aa" fill-opacity="0.18" /><circle cx="148.38" cy="324.32" r="2.0" fill="#2364aa" fill-opacity="0.18" /><circle cx="181.48" cy="368.06" r="2.0" fill="#2364aa" fill-opacity="0.18" /><circle cx="166.29" cy="302.25" r="2.0" fill="#2364aa" fill-opacity="0.18" /><circle cx="153.52" cy="412.18" r="2.0" fill="#2364aa" fill-opacity="0.18" /><circle cx="180.99" cy="349.82" r="2.0" fill="#2364aa" fill-opacity="0.18" /><circle cx="123.06" cy="371.92" r="2.0" fill="#2364aa" fill-opacity="0.18" /><circle cx="118.93" cy="360.11" r="2.0" fill="#2364aa" fill-opacity="0.18" /><circle cx="152.80" cy="464.99" r="2.0" fill="#2364aa" fill-opacity="0.18" /><circle cx="110.23" cy="341.88" r="2.0" fill="#2364aa" fill-opacity="0.18" /><circle cx="109.61" cy="377.92" r="2.0" fill="#2364aa" fill-opacity="0.18" /><circle cx="145.49" cy="391.90" r="2.0" fill="#2364aa" fill-opacity="0.18" /><circle cx="141.84" cy="336.93" r="2.0" fill="#2364aa" fill-opacity="0.18" /><circle cx="175.61" cy="395.54" r="2.0" fill="#2364aa" fill-opacity="0.18" /><circle cx="154.05" cy="410.04" r="2.0" fill="#2364aa" fill-opacity="0.18" /><circle cx="145.43" cy="346.90" r="2.0" fill="#2364aa" fill-opacity="0.18" /><circle cx="144.14" cy="374.60" r="2.0" fill="#2364aa" fill-opacity="0.18" /><circle cx="125.47" cy="347.34" r="2.0" fill="#2364aa" fill-opacity="0.18" /><circle cx="107.82" cy="375.94" r="2.0" fill="#2364aa" fill-opacity="0.18" /><circle cx="121.34" cy="405.92" r="2.0" fill="#2364aa" fill-opacity="0.18" /><circle cx="158.75" cy="437.10" r="2.0" fill="#2364aa" fill-opacity="0.18" /><circle cx="121.96" cy="356.68" r="2.0" fill="#2364aa" fill-opacity="0.18" /><circle cx="134.61" cy="297.37" r="2.0" fill="#2364aa" fill-opacity="0.18" /><circle cx="107.21" cy="327.40" r="2.0" fill="#2364aa" fill-opacity="0.18" /><circle cx="169.09" cy="450.09" r="2.0" fill="#2364aa" fill-opacity="0.18" /><circle cx="118.50" cy="316.24" r="2.0" fill="#2364aa" fill-opacity="0.18" /><circle cx="126.97" cy="441.94" r="2.0" fill="#2364aa" fill-opacity="0.18" /><circle cx="172.85" cy="436.03" r="2.0" fill="#2364aa" fill-opacity="0.18" /><circle cx="145.11" cy="268.80" r="2.0" fill="#2364aa" fill-opacity="0.18" /><circle cx="170.37" cy="368.44" r="2.0" fill="#2364aa" fill-opacity="0.18" /><circle cx="154.84" cy="455.27" r="2.0" fill="#2364aa" fill-opacity="0.18" /><circle cx="162.48" cy="318.74" r="2.0" fill="#2364aa" fill-opacity="0.18" /><circle cx="113.79" cy="428.11" r="2.0" fill="#2364aa" fill-opacity="0.18" /><circle cx="147.46" cy="450.76" r="2.0" fill="#2364aa" fill-opacity="0.18" /><circle cx="144.96" cy="343.38" r="2.0" fill="#2364aa" fill-opacity="0.18" /><line x1="144.38" y1="485.37" x2="144.38" y2="231.28" stroke="#334155" stroke-width="1.4"/><line x1="128.38" y1="485.37" x2="160.38" y2="485.37" stroke="#334155" stroke-width="1.4"/><line x1="128.38" y1="231.28" x2="160.38" y2="231.28" stroke="#334155" stroke-width="1.4"/><rect x="120.38" y="328.92" width="48.00" height="70.36" fill="#2364aa" fill-opacity="0.34" stroke="#111827"/><line x1="120.38" y1="353.47" x2="168.38" y2="353.47" stroke="#111827" stroke-width="2"/><text transform="translate(139.38 646) rotate(-45)" font-size="11" font-family="Arial, sans-serif">NEON (n=490)</text><circle cx="280.93" cy="140.09" r="2.0" fill="#f25f5c" fill-opacity="0.18" /><circle cx="242.74" cy="142.41" r="2.0" fill="#f25f5c" fill-opacity="0.18" /><circle cx="260.48" cy="139.69" r="2.0" fill="#f25f5c" fill-opacity="0.18" /><circle cx="220.12" cy="144.51" r="2.0" fill="#f25f5c" fill-opacity="0.18" /><circle cx="244.71" cy="139.01" r="2.0" fill="#f25f5c" fill-opacity="0.18" /><circle cx="239.87" cy="154.12" r="2.0" fill="#f25f5c" fill-opacity="0.18" /><circle cx="226.93" cy="144.47" r="2.0" fill="#f25f5c" fill-opacity="0.18" /><circle cx="276.81" cy="164.56" r="2.0" fill="#f25f5c" fill-opacity="0.18" /><circle cx="244.10" cy="143.80" r="2.0" fill="#f25f5c" fill-opacity="0.18" /><circle cx="288.97" cy="150.36" r="2.0" fill="#f25f5c" fill-opacity="0.18" /><circle cx="259.86" cy="148.94" r="2.0" fill="#f25f5c" fill-opacity="0.18" /><circle cx="260.99" cy="138.53" r="2.0" fill="#f25f5c" fill-opacity="0.18" /><circle cx="263.46" cy="175.27" r="2.0" fill="#f25f5c" fill-opacity="0.18" /><circle cx="266.34" cy="141.50" r="2.0" fill="#f25f5c" fill-opacity="0.18" /><circle cx="226.98" cy="138.09" r="2.0" fill="#f25f5c" fill-opacity="0.18" /><circle cx="248.66" cy="134.33" r="2.0" fill="#f25f5c" fill-opacity="0.18" /><circle cx="233.62" cy="142.62" r="2.0" fill="#f25f5c" fill-opacity="0.18" /><circle cx="245.82" cy="190.61" r="2.0" fill="#f25f5c" fill-opacity="0.18" /><circle cx="222.93" cy="131.80" r="2.0" fill="#f25f5c" fill-opacity="0.18" /><circle cx="288.16" cy="130.30" r="2.0" fill="#f25f5c" fill-opacity="0.18" /><circle cx="231.78" cy="159.87" r="2.0" fill="#f25f5c" fill-opacity="0.18" /><circle cx="265.99" cy="139.50" r="2.0" fill="#f25f5c" fill-opacity="0.18" /><circle cx="238.18" cy="143.47" r="2.0" fill="#f25f5c" fill-opacity="0.18" /><circle cx="281.14" cy="149.17" r="2.0" fill="#f25f5c" fill-opacity="0.18" /><circle cx="265.27" cy="141.84" r="2.0" fill="#f25f5c" fill-opacity="0.18" /><circle cx="225.54" cy="150.51" r="2.0" fill="#f25f5c" fill-opacity="0.18" /><circle cx="278.96" cy="141.16" r="2.0" fill="#f25f5c" fill-opacity="0.18" /><circle cx="286.44" cy="134.20" r="2.0" fill="#f25f5c" fill-opacity="0.18" /><circle cx="283.37" cy="143.33" r="2.0" fill="#f25f5c" fill-opacity="0.18" /><circle cx="258.35" cy="144.54" r="2.0" fill="#f25f5c" fill-opacity="0.18" /><circle cx="226.58" cy="140.85" r="2.0" fill="#f25f5c" fill-opacity="0.18" /><circle cx="230.10" cy="133.48" r="2.0" fill="#f25f5c" fill-opacity="0.18" /><circle cx="285.17" cy="142.24" r="2.0" fill="#f25f5c" fill-opacity="0.18" /><circle cx="257.04" cy="139.59" r="2.0" fill="#f25f5c" fill-opacity="0.18" /><circle cx="229.20" cy="133.24" r="2.0" fill="#f25f5c" fill-opacity="0.18" /><circle cx="281.88" cy="147.20" r="2.0" fill="#f25f5c" fill-opacity="0.18" /><circle cx="263.73" cy="181.56" r="2.0" fill="#f25f5c" fill-opacity="0.18" /><circle cx="258.34" cy="142.62" r="2.0" fill="#f25f5c" fill-opacity="0.18" /><circle cx="243.86" cy="142.58" r="2.0" fill="#f25f5c" fill-opacity="0.18" /><circle cx="246.46" cy="138.47" r="2.0" fill="#f25f5c" fill-opacity="0.18" /><circle cx="233.62" cy="140.59" r="2.0" fill="#f25f5c" fill-opacity="0.18" /><circle cx="218.53" cy="138.39" r="2.0" fill="#f25f5c" fill-opacity="0.18" /><circle cx="281.30" cy="131.42" r="2.0" fill="#f25f5c" fill-opacity="0.18" /><circle cx="250.71" cy="132.63" r="2.0" fill="#f25f5c" fill-opacity="0.18" /><circle cx="256.69" cy="148.80" r="2.0" fill="#f25f5c" fill-opacity="0.18" /><circle cx="239.81" cy="137.18" r="2.0" fill="#f25f5c" fill-opacity="0.18" /><circle cx="271.94" cy="140.62" r="2.0" fill="#f25f5c" fill-opacity="0.18" /><line x1="253.12" y1="159.87" x2="253.12" y2="126.23" stroke="#334155" stroke-width="1.4"/><line x1="237.12" y1="159.87" x2="269.12" y2="159.87" stroke="#334155" stroke-width="1.4"/><line x1="237.12" y1="126.23" x2="269.12" y2="126.23" stroke="#334155" stroke-width="1.4"/><rect x="229.12" y="137.03" width="48.00" height="9.20" fill="#3da35d" fill-opacity="0.34" stroke="#111827"/><line x1="229.12" y1="140.66" x2="277.12" y2="140.66" stroke="#111827" stroke-width="2"/><text transform="translate(248.12 646) rotate(-45)" font-size="11" font-family="Arial, sans-serif">GEOTRACES (n=472)</text><circle cx="326.32" cy="392.25" r="2.0" fill="#2364aa" fill-opacity="0.18" /><circle cx="352.30" cy="390.90" r="2.0" fill="#2364aa" fill-opacity="0.18" /><circle cx="326.71" cy="397.96" r="2.0" fill="#2364aa" fill-opacity="0.18" /><circle cx="333.64" cy="428.79" r="2.0" fill="#2364aa" fill-opacity="0.18" /><circle cx="396.86" cy="372.02" r="2.0" fill="#2364aa" fill-opacity="0.18" /><circle cx="373.69" cy="353.50" r="2.0" fill="#2364aa" fill-opacity="0.18" /><circle cx="356.50" cy="392.74" r="2.0" fill="#2364aa" fill-opacity="0.18" /><circle cx="363.65" cy="368.11" r="2.0" fill="#2364aa" fill-opacity="0.18" /><circle cx="389.79" cy="413.38" r="2.0" fill="#2364aa" fill-opacity="0.18" /><circle cx="350.21" cy="446.62" r="2.0" fill="#2364aa" fill-opacity="0.18" /><circle cx="368.64" cy="434.64" r="2.0" fill="#2364aa" fill-opacity="0.18" /><circle cx="375.63" cy="440.54" r="2.0" fill="#2364aa" fill-opacity="0.18" /><circle cx="351.05" cy="370.26" r="2.0" fill="#2364aa" fill-opacity="0.18" /><circle cx="363.31" cy="423.13" r="2.0" fill="#2364aa" fill-opacity="0.18" /><circle cx="381.74" cy="418.09" r="2.0" fill="#2364aa" fill-opacity="0.18" /><circle cx="392.51" cy="361.33" r="2.0" fill="#2364aa" fill-opacity="0.18" /><circle cx="335.75" cy="446.49" r="2.0" fill="#2364aa" fill-opacity="0.18" /><circle cx="394.33" cy="368.65" r="2.0" fill="#2364aa" fill-opacity="0.18" /><circle cx="324.82" cy="389.93" r="2.0" fill="#2364aa" fill-opacity="0.18" /><circle cx="380.82" cy="379.62" r="2.0" fill="#2364aa" fill-opacity="0.18" /><circle cx="385.13" cy="377.44" r="2.0" fill="#2364aa" fill-opacity="0.18" /><circle cx="334.68" cy="359.05" r="2.0" fill="#2364aa" fill-opacity="0.18" /><circle cx="355.80" cy="423.17" r="2.0" fill="#2364aa" fill-opacity="0.18" /><circle cx="385.48" cy="355.04" r="2.0" fill="#2364aa" fill-opacity="0.18" /><circle cx="325.50" cy="473.50" r="2.0" fill="#2364aa" fill-opacity="0.18" /><circle cx="371.49" cy="394.93" r="2.0" fill="#2364aa" fill-opacity="0.18" /><circle cx="383.82" cy="340.73" r="2.0" fill="#2364aa" fill-opacity="0.18" /><circle cx="362.85" cy="429.01" r="2.0" fill="#2364aa" fill-opacity="0.18" /><circle cx="378.79" cy="351.43" r="2.0" fill="#2364aa" fill-opacity="0.18" /><circle cx="341.39" cy="440.46" r="2.0" fill="#2364aa" fill-opacity="0.18" /><circle cx="339.30" cy="333.24" r="2.0" fill="#2364aa" fill-opacity="0.18" /><circle cx="351.63" cy="387.38" r="2.0" fill="#2364aa" fill-opacity="0.18" /><circle cx="337.87" cy="387.71" r="2.0" fill="#2364aa" fill-opacity="0.18" /><circle cx="350.35" cy="417.64" r="2.0" fill="#2364aa" fill-opacity="0.18" /><circle cx="395.43" cy="373.91" r="2.0" fill="#2364aa" fill-opacity="0.18" /><circle cx="367.37" cy="443.64" r="2.0" fill="#2364aa" fill-opacity="0.18" /><circle cx="349.90" cy="377.08" r="2.0" fill="#2364aa" fill-opacity="0.18" /><circle cx="344.77" cy="409.43" r="2.0" fill="#2364aa" fill-opacity="0.18" /><line x1="361.88" y1="477.31" x2="361.88" y2="304.29" stroke="#334155" stroke-width="1.4"/><line x1="345.88" y1="477.31" x2="377.88" y2="477.31" stroke="#334155" stroke-width="1.4"/><line x1="345.88" y1="304.29" x2="377.88" y2="304.29" stroke="#334155" stroke-width="1.4"/><rect x="337.88" y="371.49" width="48.00" height="52.88" fill="#f25f5c" fill-opacity="0.34" stroke="#111827"/><line x1="337.88" y1="396.17" x2="385.88" y2="396.17" stroke="#111827" stroke-width="2"/><text transform="translate(356.88 646) rotate(-45)" font-size="11" font-family="Arial, sans-serif">TAMI (n=384)</text><circle cx="504.47" cy="138.71" r="2.0" fill="#f25f5c" fill-opacity="0.18" /><circle cx="466.47" cy="145.67" r="2.0" fill="#f25f5c" fill-opacity="0.18" /><circle cx="506.60" cy="141.49" r="2.0" fill="#f25f5c" fill-opacity="0.18" /><circle cx="471.79" cy="159.77" r="2.0" fill="#f25f5c" fill-opacity="0.18" /><circle cx="472.21" cy="123.74" r="2.0" fill="#f25f5c" fill-opacity="0.18" /><circle cx="500.32" cy="152.63" r="2.0" fill="#f25f5c" fill-opacity="0.18" /><circle cx="488.80" cy="142.43" r="2.0" fill="#f25f5c" fill-opacity="0.18" /><circle cx="476.66" cy="116.99" r="2.0" fill="#f25f5c" fill-opacity="0.18" /><circle cx="465.13" cy="198.27" r="2.0" fill="#f25f5c" fill-opacity="0.18" /><circle cx="498.94" cy="121.37" r="2.0" fill="#f25f5c" fill-opacity="0.18" /><circle cx="464.01" cy="119.78" r="2.0" fill="#f25f5c" fill-opacity="0.18" /><circle cx="502.28" cy="143.27" r="2.0" fill="#f25f5c" fill-opacity="0.18" /><circle cx="438.33" cy="169.41" r="2.0" fill="#f25f5c" fill-opacity="0.18" /><line x1="470.62" y1="187.27" x2="470.62" y2="113.38" stroke="#334155" stroke-width="1.4"/><line x1="454.62" y1="187.27" x2="486.62" y2="187.27" stroke="#334155" stroke-width="1.4"/><line x1="454.62" y1="113.38" x2="486.62" y2="113.38" stroke="#334155" stroke-width="1.4"/><rect x="446.62" y="133.46" width="48.00" height="24.86" fill="#7b2cbf" fill-opacity="0.34" stroke="#111827"/><line x1="446.62" y1="147.06" x2="494.62" y2="147.06" stroke="#111827" stroke-width="2"/><text transform="translate(465.62 646) rotate(-45)" font-size="11" font-family="Arial, sans-serif">Tara (n=128)</text><circle cx="574.13" cy="461.42" r="2.0" fill="#2364aa" fill-opacity="0.18" /><circle cx="580.84" cy="406.63" r="2.0" fill="#2364aa" fill-opacity="0.18" /><circle cx="613.14" cy="429.26" r="2.0" fill="#2364aa" fill-opacity="0.18" /><circle cx="560.73" cy="404.53" r="2.0" fill="#2364aa" fill-opacity="0.18" /><circle cx="602.29" cy="436.67" r="2.0" fill="#2364aa" fill-opacity="0.18" /><circle cx="592.59" cy="432.65" r="2.0" fill="#2364aa" fill-opacity="0.18" /><circle cx="595.63" cy="422.04" r="2.0" fill="#2364aa" fill-opacity="0.18" /><line x1="579.38" y1="489.98" x2="579.38" y2="375.77" stroke="#334155" stroke-width="1.4"/><line x1="563.38" y1="489.98" x2="595.38" y2="489.98" stroke="#334155" stroke-width="1.4"/><line x1="563.38" y1="375.77" x2="595.38" y2="375.77" stroke="#334155" stroke-width="1.4"/><rect x="555.38" y="405.58" width="48.00" height="37.88" fill="#f6ae2d" fill-opacity="0.34" stroke="#111827"/><line x1="555.38" y1="429.13" x2="603.38" y2="429.13" stroke="#111827" stroke-width="2"/><text transform="translate(574.38 646) rotate(-45)" font-size="11" font-family="Arial, sans-serif">SMAG (n=67)</text><circle cx="697.83" cy="137.98" r="2.0" fill="#f25f5c" fill-opacity="0.18" /><circle cx="723.44" cy="161.84" r="2.0" fill="#f25f5c" fill-opacity="0.18" /><circle cx="675.60" cy="139.64" r="2.0" fill="#f25f5c" fill-opacity="0.18" /><circle cx="680.51" cy="134.51" r="2.0" fill="#f25f5c" fill-opacity="0.18" /><circle cx="665.88" cy="142.29" r="2.0" fill="#f25f5c" fill-opacity="0.18" /><circle cx="654.48" cy="138.73" r="2.0" fill="#f25f5c" fill-opacity="0.18" /><circle cx="666.63" cy="152.41" r="2.0" fill="#f25f5c" fill-opacity="0.18" /><line x1="688.12" y1="152.41" x2="688.12" y2="133.81" stroke="#334155" stroke-width="1.4"/><line x1="672.12" y1="152.41" x2="704.12" y2="152.41" stroke="#334155" stroke-width="1.4"/><line x1="672.12" y1="133.81" x2="704.12" y2="133.81" stroke="#334155" stroke-width="1.4"/><rect x="664.12" y="137.48" width="48.00" height="6.66" fill="#008b8b" fill-opacity="0.34" stroke="#111827"/><line x1="664.12" y1="140.30" x2="712.12" y2="140.30" stroke="#111827" stroke-width="2"/><text transform="translate(683.12 646) rotate(-45)" font-size="11" font-family="Arial, sans-serif">HOT (n=66)</text><circle cx="827.98" cy="136.26" r="2.0" fill="#f25f5c" fill-opacity="0.18" /><circle cx="822.35" cy="135.02" r="2.0" fill="#f25f5c" fill-opacity="0.18" /><circle cx="767.85" cy="162.62" r="2.0" fill="#f25f5c" fill-opacity="0.18" /><circle cx="804.65" cy="128.82" r="2.0" fill="#f25f5c" fill-opacity="0.18" /><circle cx="795.32" cy="135.35" r="2.0" fill="#f25f5c" fill-opacity="0.18" /><circle cx="803.97" cy="129.94" r="2.0" fill="#f25f5c" fill-opacity="0.18" /><line x1="796.88" y1="185.20" x2="796.88" y2="125.94" stroke="#334155" stroke-width="1.4"/><line x1="780.88" y1="185.20" x2="812.88" y2="185.20" stroke="#334155" stroke-width="1.4"/><line x1="780.88" y1="125.94" x2="812.88" y2="125.94" stroke="#334155" stroke-width="1.4"/><rect x="772.88" y="133.02" width="48.00" height="22.23" fill="#d81159" fill-opacity="0.34" stroke="#111827"/><line x1="772.88" y1="136.60" x2="820.88" y2="136.60" stroke="#111827" stroke-width="2"/><text transform="translate(791.88 646) rotate(-45)" font-size="11" font-family="Arial, sans-serif">BATS (n=57)</text><circle cx="917.55" cy="111.55" r="2.0" fill="#f25f5c" fill-opacity="0.18" /><circle cx="891.15" cy="113.88" r="2.0" fill="#f25f5c" fill-opacity="0.18" /><line x1="905.62" y1="171.66" x2="905.62" y2="73.02" stroke="#334155" stroke-width="1.4"/><line x1="889.62" y1="171.66" x2="921.62" y2="171.66" stroke="#334155" stroke-width="1.4"/><line x1="889.62" y1="73.02" x2="921.62" y2="73.02" stroke="#334155" stroke-width="1.4"/><rect x="881.62" y="87.30" width="48.00" height="52.70" fill="#6a994e" fill-opacity="0.34" stroke="#111827"/><line x1="881.62" y1="105.78" x2="929.62" y2="105.78" stroke="#111827" stroke-width="2"/><text transform="translate(900.62 646) rotate(-45)" font-size="11" font-family="Arial, sans-serif">POLARSTERN (n=22)</text><circle cx="970" cy="80" r="4" fill="#2364aa" fill-opacity="0.5"/><text x="982" y="84" font-size="12" font-family="Arial, sans-serif">Soil jitter, 10%</text><circle cx="970" cy="102" r="4" fill="#f25f5c" fill-opacity="0.5"/><text x="982" y="106" font-size="12" font-family="Arial, sans-serif">Marine jitter, 10%</text>
<line x1="90" y1="515" x2="960" y2="515" stroke="#334155"/>
<line x1="90" y1="48" x2="90" y2="515" stroke="#334155"/>
<text x="28" y="77.02" font-size="12" font-family="Arial, sans-serif">4.842</text>
<text x="28" y="493.98" font-size="12" font-family="Arial, sans-serif">3.995</text>
<text transform="translate(24 323.5) rotate(-90)" font-size="13" font-family="Arial, sans-serif">read_spread_l2</text>
</svg>
