<svg xmlns="http://www.w3.org/2000/svg" width="900" height="560" viewBox="0 0 900 560">
<rect width="100%" height="100%" fill="#ffffff"/>
<text x="70" y="28" font-size="18" font-family="Arial, sans-serif" font-weight="700">Histogram of variance_mean</text>
<rect x="70" y="48" width="794" height="442" fill="#f8fafc" stroke="#cbd5e1"/>
<rect x="70.00" y="485.80" width="18.85" height="4.20" fill="#2364aa" fill-opacity="0.78"/><rect x="89.85" y="469.02" width="18.85" height="20.98" fill="#2364aa" fill-opacity="0.78"/><rect x="109.70" y="448.04" width="18.85" height="41.96" fill="#2364aa" fill-opacity="0.78"/><rect x="129.55" y="424.26" width="18.85" height="65.74" fill="#2364aa" fill-opacity="0.78"/><rect x="149.40" y="390.69" width="18.85" height="99.31" fill="#2364aa" fill-opacity="0.78"/><rect x="169.25" y="383.70" width="18.85" height="106.30" fill="#2364aa" fill-opacity="0.78"/><rect x="189.10" y="403.28" width="18.85" height="86.72" fill="#2364aa" fill-opacity="0.78"/><rect x="208.95" y="378.10" width="18.85" height="111.90" fill="#2364aa" fill-opacity="0.78"/><rect x="228.80" y="403.28" width="18.85" height="86.72" fill="#2364aa" fill-opacity="0.78"/><rect x="248.65" y="392.09" width="18.85" height="97.91" fill="#2364aa" fill-opacity="0.78"/><rect x="268.50" y="379.50" width="18.85" height="110.50" fill="#2364aa" fill-opacity="0.78"/><rect x="288.35" y="392.09" width="18.85" height="97.91" fill="#2364aa" fill-opacity="0.78"/><rect x="308.20" y="386.49" width="18.85" height="103.51" fill="#2364aa" fill-opacity="0.78"/><rect x="328.05" y="403.28" width="18.85" height="86.72" fill="#2364aa" fill-opacity="0.78"/><rect x="347.90" y="403.28" width="18.85" height="86.72" fill="#2364aa" fill-opacity="0.78"/><rect x="367.75" y="449.44" width="18.85" height="40.56" fill="#2364aa" fill-opacity="0.78"/><rect x="387.60" y="453.63" width="18.85" height="36.37" fill="#2364aa" fill-opacity="0.78"/><rect x="407.45" y="456.43" width="18.85" height="33.57" fill="#2364aa" fill-opacity="0.78"/><rect x="427.30" y="470.42" width="18.85" height="19.58" fill="#2364aa" fill-opacity="0.78"/><rect x="447.15" y="480.21" width="18.85" height="9.79" fill="#2364aa" fill-opacity="0.78"/><rect x="467.00" y="485.80" width="18.85" height="4.20" fill="#2364aa" fill-opacity="0.78"/><rect x="486.85" y="485.80" width="18.85" height="4.20" fill="#2364aa" fill-opacity="0.78"/><rect x="506.70" y="488.60" width="18.85" height="1.40" fill="#2364aa" fill-opacity="0.78"/><rect x="526.55" y="485.80" width="18.85" height="4.20" fill="#2364aa" fill-opacity="0.78"/><rect x="546.40" y="490.00" width="18.85" height="0.00" fill="#2364aa" fill-opacity="0.78"/><rect x="566.25" y="490.00" width="18.85" height="0.00" fill="#2364aa" fill-opacity="0.78"/><rect x="586.10" y="490.00" width="18.85" height="0.00" fill="#2364aa" fill-opacity="0.78"/><rect x="605.95" y="487.20" width="18.85" height="2.80" fill="#2364aa" fill-opacity="0.78"/><rect x="625.80" y="476.01" width="18.85" height="13.99" fill="#2364aa" fill-opacity="0.78"/><rect x="645.65" y="450.84" width="18.85" height="39.16" fill="#2364aa" fill-opacity="0.78"/><rect x="665.50" y="418.66" width="18.85" height="71.34" fill="#2364aa" fill-opacity="0.78"/><rect x="685.35" y="396.28" width="18.85" height="93.72" fill="#2364aa" fill-opacity="0.78"/><rect x="705.20" y="179.48" width="18.85" height="310.52" fill="#2364aa" fill-opacity="0.78"/><rect x="725.05" y="48.00" width="18.85" height="442.00" fill="#2364aa" fill-opacity="0.78"/><rect x="744.90" y="445.24" width="18.85" height="44.76" fill="#2364aa" fill-opacity="0.78"/><rect x="764.75" y="471.82" width="18.85" height="18.18" fill="#2364aa" fill-opacity="0.78"/><rect x="784.60" y="490.00" width="18.85" height="0.00" fill="#2364aa" fill-opacity="0.78"/><rect x="804.45" y="485.80" width="18.85" height="4.20" fill="#2364aa" fill-opacity="0.78"/><rect x="824.30" y="484.41" width="18.85" height="5.59" fill="#2364aa" fill-opacity="0.78"/><rect x="844.15" y="484.41" width="18.85" height="5.59" fill="#2364aa" fill-opacity="0.78"/>
<line x1="70" y1="490" x2="864" y2="490" stroke="#334155"/>
<line x1="70" y1="48" x2="70" y2="490" stroke="#334155"/>
<text x="70" y="532" font-size="12" font-family="Arial, sans-serif">0.02078</text>
<text x="814" y="532" font-size="12" font-family="Arial, sans-serif">0.03052</text>
<text x="425.0" y="532" font-size="12" font-family="Arial, sans-serif">variance_mean</text>
<text transform="translate(22 293.0) rotate(-90)" font-size="13" font-family="Arial, sans-serif">bag count</text>
<text x="76" y="66" font-size="12" font-family="Arial, sans-serif">max bin n=316</text>
</svg>
