<svg xmlns="http://www.w3.org/2000/svg" width="900" height="560" viewBox="0 0 900 560">
<rect width="100%" height="100%" fill="#ffffff"/>
<text x="70" y="28" font-size="18" font-family="Arial, sans-serif" font-weight="700">Histogram of variance_mean</text>
<rect x="70" y="48" width="794" height="442" fill="#f8fafc" stroke="#cbd5e1"/>
<rect x="70.00" y="488.54" width="18.85" height="1.46" fill="#2364aa" fill-opacity="0.78"/><rect x="89.85" y="481.11" width="18.85" height="8.89" fill="#2364aa" fill-opacity="0.78"/><rect x="109.70" y="461.54" width="18.85" height="28.46" fill="#2364aa" fill-opacity="0.78"/><rect x="129.55" y="434.36" width="18.85" height="55.64" fill="#2364aa" fill-opacity="0.78"/><rect x="149.40" y="405.02" width="18.85" height="84.98" fill="#2364aa" fill-opacity="0.78"/><rect x="169.25" y="373.70" width="18.85" height="116.30" fill="#2364aa" fill-opacity="0.78"/><rect x="189.10" y="374.38" width="18.85" height="115.62" fill="#2364aa" fill-opacity="0.78"/><rect x="208.95" y="381.50" width="18.85" height="108.50" fill="#2364aa" fill-opacity="0.78"/><rect x="228.80" y="368.69" width="18.85" height="121.31" fill="#2364aa" fill-opacity="0.78"/><rect x="248.65" y="385.42" width="18.85" height="104.58" fill="#2364aa" fill-opacity="0.78"/><rect x="268.50" y="368.86" width="18.85" height="121.14" fill="#2364aa" fill-opacity="0.78"/><rect x="288.35" y="370.40" width="18.85" height="119.60" fill="#2364aa" fill-opacity="0.78"/><rect x="308.20" y="377.64" width="18.85" height="112.36" fill="#2364aa" fill-opacity="0.78"/><rect x="328.05" y="381.73" width="18.85" height="108.27" fill="#2364aa" fill-opacity="0.78"/><rect x="347.90" y="387.97" width="18.85" height="102.03" fill="#2364aa" fill-opacity="0.78"/><rect x="367.75" y="429.00" width="18.85" height="61.00" fill="#2364aa" fill-opacity="0.78"/><rect x="387.60" y="444.47" width="18.85" height="45.53" fill="#2364aa" fill-opacity="0.78"/><rect x="407.45" y="448.97" width="18.85" height="41.03" fill="#2364aa" fill-opacity="0.78"/><rect x="427.30" y="464.68" width="18.85" height="25.32" fill="#2364aa" fill-opacity="0.78"/><rect x="447.15" y="475.19" width="18.85" height="14.81" fill="#2364aa" fill-opacity="0.78"/><rect x="467.00" y="483.57" width="18.85" height="6.43" fill="#2364aa" fill-opacity="0.78"/><rect x="486.85" y="486.70" width="18.85" height="3.30" fill="#2364aa" fill-opacity="0.78"/><rect x="506.70" y="486.90" width="18.85" height="3.10" fill="#2364aa" fill-opacity="0.78"/><rect x="526.55" y="486.23" width="18.85" height="3.77" fill="#2364aa" fill-opacity="0.78"/><rect x="546.40" y="488.88" width="18.85" height="1.12" fill="#2364aa" fill-opacity="0.78"/><rect x="566.25" y="490.00" width="18.85" height="0.00" fill="#2364aa" fill-opacity="0.78"/><rect x="586.10" y="489.89" width="18.85" height="0.11" fill="#2364aa" fill-opacity="0.78"/><rect x="605.95" y="487.82" width="18.85" height="2.18" fill="#2364aa" fill-opacity="0.78"/><rect x="625.80" y="470.11" width="18.85" height="19.89" fill="#2364aa" fill-opacity="0.78"/><rect x="645.65" y="441.02" width="18.85" height="48.98" fill="#2364aa" fill-opacity="0.78"/><rect x="665.50" y="402.19" width="18.85" height="87.81" fill="#2364aa" fill-opacity="0.78"/><rect x="685.35" y="346.36" width="18.85" height="143.64" fill="#2364aa" fill-opacity="0.78"/><rect x="705.20" y="48.00" width="18.85" height="442.00" fill="#2364aa" fill-opacity="0.78"/><rect x="725.05" y="136.09" width="18.85" height="353.91" fill="#2364aa" fill-opacity="0.78"/><rect x="744.90" y="447.86" width="18.85" height="42.14" fill="#2364aa" fill-opacity="0.78"/><rect x="764.75" y="478.56" width="18.85" height="11.44" fill="#2364aa" fill-opacity="0.78"/><rect x="784.60" y="487.73" width="18.85" height="2.27" fill="#2364aa" fill-opacity="0.78"/><rect x="804.45" y="483.92" width="18.85" height="6.08" fill="#2364aa" fill-opacity="0.78"/><rect x="824.30" y="483.62" width="18.85" height="6.38" fill="#2364aa" fill-opacity="0.78"/><rect x="844.15" y="487.17" width="18.85" height="2.83" fill="#2364aa" fill-opacity="0.78"/>
<line x1="70" y1="490" x2="864" y2="490" stroke="#334155"/>
<line x1="70" y1="48" x2="70" y2="490" stroke="#334155"/>
<text x="70" y="532" font-size="12" font-family="Arial, sans-serif">0.02056</text>
<text x="814" y="532" font-size="12" font-family="Arial, sans-serif">0.03065</text>
<text x="425.0" y="532" font-size="12" font-family="Arial, sans-serif">variance_mean</text>
<text transform="translate(22 293.0) rotate(-90)" font-size="13" font-family="Arial, sans-serif">bag count</text>
<text x="76" y="66" font-size="12" font-family="Arial, sans-serif">max bin n=28405</text>
</svg>
