<svg xmlns="http://www.w3.org/2000/svg" width="980" height="620" viewBox="0 0 980 620">
<rect width="100%" height="100%" fill="#ffffff"/>
<text x="90" y="28" font-size="18" font-family="Arial, sans-serif" font-weight="700">read_spread_l2 by Project</text>
<rect x="90" y="48" width="854" height="422" fill="#f8fafc" stroke="#cbd5e1"/>
<line x1="143.38" y1="470.00" x2="143.38" y2="211.28" stroke="#334155" stroke-width="1.4"/><line x1="127.38" y1="470.00" x2="159.38" y2="470.00" stroke="#334155" stroke-width="1.4"/><line x1="127.38" y1="211.28" x2="159.38" y2="211.28" stroke="#334155" stroke-width="1.4"/><rect x="119.38" y="304.66" width="48.00" height="72.47" fill="#2364aa" fill-opacity="0.62" stroke="#334155"/><line x1="119.38" y1="326.79" x2="167.38" y2="326.79" stroke="#111827" stroke-width="2"/><text transform="translate(139.38 588) rotate(-45)" font-size="11" font-family="Arial, sans-serif">NEON (n=609)</text><line x1="250.12" y1="138.13" x2="250.12" y2="100.54" stroke="#334155" stroke-width="1.4"/><line x1="234.12" y1="138.13" x2="266.12" y2="138.13" stroke="#334155" stroke-width="1.4"/><line x1="234.12" y1="100.54" x2="266.12" y2="100.54" stroke="#334155" stroke-width="1.4"/><rect x="226.12" y="110.38" width="48.00" height="11.15" fill="#3da35d" fill-opacity="0.62" stroke="#334155"/><line x1="226.12" y1="114.47" x2="274.12" y2="114.47" stroke="#111827" stroke-width="2"/><text transform="translate(246.12 588) rotate(-45)" font-size="11" font-family="Arial, sans-serif">GEOTRACES (n=526)</text><line x1="356.88" y1="463.64" x2="356.88" y2="284.32" stroke="#334155" stroke-width="1.4"/><line x1="340.88" y1="463.64" x2="372.88" y2="463.64" stroke="#334155" stroke-width="1.4"/><line x1="340.88" y1="284.32" x2="372.88" y2="284.32" stroke="#334155" stroke-width="1.4"/><rect x="332.88" y="347.11" width="48.00" height="58.29" fill="#f25f5c" fill-opacity="0.62" stroke="#334155"/><line x1="332.88" y1="375.41" x2="380.88" y2="375.41" stroke="#111827" stroke-width="2"/><text transform="translate(352.88 588) rotate(-45)" font-size="11" font-family="Arial, sans-serif">TAMI (n=443)</text><line x1="463.62" y1="162.07" x2="463.62" y2="83.20" stroke="#334155" stroke-width="1.4"/><line x1="447.62" y1="162.07" x2="479.62" y2="162.07" stroke="#334155" stroke-width="1.4"/><line x1="447.62" y1="83.20" x2="479.62" y2="83.20" stroke="#334155" stroke-width="1.4"/><rect x="439.62" y="103.62" width="48.00" height="28.82" fill="#7b2cbf" fill-opacity="0.62" stroke="#334155"/><line x1="439.62" y1="118.52" x2="487.62" y2="118.52" stroke="#111827" stroke-width="2"/><text transform="translate(459.62 588) rotate(-45)" font-size="11" font-family="Arial, sans-serif">Tara (n=148)</text><line x1="570.38" y1="141.20" x2="570.38" y2="103.58" stroke="#334155" stroke-width="1.4"/><line x1="554.38" y1="141.20" x2="586.38" y2="141.20" stroke="#334155" stroke-width="1.4"/><line x1="554.38" y1="103.58" x2="586.38" y2="103.58" stroke="#334155" stroke-width="1.4"/><rect x="546.38" y="112.01" width="48.00" height="12.00" fill="#f6ae2d" fill-opacity="0.62" stroke="#334155"/><line x1="546.38" y1="115.69" x2="594.38" y2="115.69" stroke="#111827" stroke-width="2"/><text transform="translate(566.38 588) rotate(-45)" font-size="11" font-family="Arial, sans-serif">HOT (n=80)</text><line x1="677.12" y1="160.75" x2="677.12" y2="97.86" stroke="#334155" stroke-width="1.4"/><line x1="661.12" y1="160.75" x2="693.12" y2="160.75" stroke="#334155" stroke-width="1.4"/><line x1="661.12" y1="97.86" x2="693.12" y2="97.86" stroke="#334155" stroke-width="1.4"/><rect x="653.12" y="107.60" width="48.00" height="25.31" fill="#008b8b" fill-opacity="0.62" stroke="#334155"/><line x1="653.12" y1="111.75" x2="701.12" y2="111.75" stroke="#111827" stroke-width="2"/><text transform="translate(673.12 588) rotate(-45)" font-size="11" font-family="Arial, sans-serif">BATS (n=73)</text><line x1="783.88" y1="455.79" x2="783.88" y2="349.55" stroke="#334155" stroke-width="1.4"/><line x1="767.88" y1="455.79" x2="799.88" y2="455.79" stroke="#334155" stroke-width="1.4"/><line x1="767.88" y1="349.55" x2="799.88" y2="349.55" stroke="#334155" stroke-width="1.4"/><rect x="759.88" y="390.06" width="48.00" height="29.58" fill="#d81159" fill-opacity="0.62" stroke="#334155"/><line x1="759.88" y1="406.20" x2="807.88" y2="406.20" stroke="#111827" stroke-width="2"/><text transform="translate(779.88 588) rotate(-45)" font-size="11" font-family="Arial, sans-serif">SMAG (n=55)</text><line x1="890.62" y1="116.36" x2="890.62" y2="48.00" stroke="#334155" stroke-width="1.4"/><line x1="874.62" y1="116.36" x2="906.62" y2="116.36" stroke="#334155" stroke-width="1.4"/><line x1="874.62" y1="48.00" x2="906.62" y2="48.00" stroke="#334155" stroke-width="1.4"/><rect x="866.62" y="53.41" width="48.00" height="59.76" fill="#6a994e" fill-opacity="0.62" stroke="#334155"/><line x1="866.62" y1="72.34" x2="914.62" y2="72.34" stroke="#111827" stroke-width="2"/><text transform="translate(886.62 588) rotate(-45)" font-size="11" font-family="Arial, sans-serif">POLARSTERN (n=20)</text>
<line x1="90" y1="470" x2="944" y2="470" stroke="#334155"/>
<line x1="90" y1="48" x2="90" y2="470" stroke="#334155"/>
<text x="28" y="52.00" font-size="12" font-family="Arial, sans-serif">4.838</text>
<text x="28" y="474.00" font-size="12" font-family="Arial, sans-serif">3.99</text>
<text transform="translate(24 301.0) rotate(-90)" font-size="13" font-family="Arial, sans-serif">read_spread_l2</text>
</svg>
