<svg xmlns="http://www.w3.org/2000/svg" width="900" height="720" viewBox="0 0 900 720">
<rect width="100%" height="100%" fill="#ffffff"/>
<text x="70" y="28" font-size="18" font-family="Arial, sans-serif" font-weight="700">PCOA colored by read_spread_l2</text>
<rect x="70" y="48" width="620" height="602" fill="#f8fafc" stroke="#cbd5e1"/>
<circle cx="536.33" cy="557.39" r="2.2" fill="#32c4b3" fill-opacity="0.68" /><circle cx="568.74" cy="560.90" r="2.2" fill="#2dbab5" fill-opacity="0.68" /><circle cx="558.63" cy="540.65" r="2.2" fill="#45c2a7" fill-opacity="0.68" /><circle cx="498.43" cy="507.53" r="2.2" fill="#93b971" fill-opacity="0.68" /><circle cx="540.27" cy="522.03" r="2.2" fill="#71bd88" fill-opacity="0.68" /><circle cx="550.62" cy="520.76" r="2.2" fill="#6dbd8b" fill-opacity="0.68" /><circle cx="551.01" cy="612.66" r="2.2" fill="#288faf" fill-opacity="0.68" /><circle cx="668.24" cy="563.42" r="2.2" fill="#2badb3" fill-opacity="0.68" /><circle cx="563.51" cy="621.71" r="2.2" fill="#2787ae" fill-opacity="0.68" /><circle cx="661.26" cy="576.78" r="2.2" fill="#2994b0" fill-opacity="0.68" /><circle cx="654.65" cy="573.38" r="2.2" fill="#2998b1" fill-opacity="0.68" /><circle cx="541.88" cy="602.32" r="2.2" fill="#2996b0" fill-opacity="0.68" /><circle cx="659.99" cy="576.77" r="2.2" fill="#2994b0" fill-opacity="0.68" /><circle cx="646.65" cy="558.69" r="2.2" fill="#2aa5b2" fill-opacity="0.68" /><circle cx="646.22" cy="561.15" r="2.2" fill="#2aa5b2" fill-opacity="0.68" /><circle cx="567.34" cy="621.15" r="2.2" fill="#2786ae" fill-opacity="0.68" /><circle cx="548.00" cy="610.21" r="2.2" fill="#288faf" fill-opacity="0.68" /><circle cx="639.53" cy="552.61" r="2.2" fill="#2cb2b4" fill-opacity="0.68" /><circle cx="633.47" cy="540.64" r="2.2" fill="#2cb1b4" fill-opacity="0.68" /><circle cx="549.93" cy="607.71" r="2.2" fill="#2892b0" fill-opacity="0.68" /><circle cx="575.13" cy="632.83" r="2.2" fill="#267ead" fill-opacity="0.68" /><circle cx="538.79" cy="504.14" r="2.2" fill="#88ba78" fill-opacity="0.68" /><circle cx="534.74" cy="512.96" r="2.2" fill="#72bc87" fill-opacity="0.68" /><circle cx="531.60" cy="507.30" r="2.2" fill="#85ba7b" fill-opacity="0.68" /><circle cx="528.04" cy="530.85" r="2.2" fill="#61be93" fill-opacity="0.68" /><circle cx="528.81" cy="516.17" r="2.2" fill="#71bd88" fill-opacity="0.68" /><circle cx="673.04" cy="625.66" r="2.2" fill="#2682ae" fill-opacity="0.68" /><circle cx="625.25" cy="604.09" r="2.2" fill="#299bb1" fill-opacity="0.68" /><circle cx="540.28" cy="571.50" r="2.2" fill="#2cb4b4" fill-opacity="0.68" /><circle cx="637.53" cy="610.01" r="2.2" fill="#2999b1" fill-opacity="0.68" /><circle cx="636.16" cy="604.95" r="2.2" fill="#2997b0" fill-opacity="0.68" /><circle cx="612.91" cy="609.48" r="2.2" fill="#2999b1" fill-opacity="0.68" /><circle cx="551.68" cy="547.08" r="2.2" fill="#39c3ae" fill-opacity="0.68" /><circle cx="578.25" cy="489.33" r="2.2" fill="#87ba79" fill-opacity="0.68" /><circle cx="547.58" cy="502.20" r="2.2" fill="#8fb973" fill-opacity="0.68" /><circle cx="611.04" cy="595.60" r="2.2" fill="#2a9fb1" fill-opacity="0.68" /><circle cx="587.99" cy="574.84" r="2.2" fill="#2cb5b4" fill-opacity="0.68" /><circle cx="568.25" cy="524.35" r="2.2" fill="#51c09e" fill-opacity="0.68" /><circle cx="496.08" cy="547.75" r="2.2" fill="#42c2a8" fill-opacity="0.68" /><circle cx="495.13" cy="543.24" r="2.2" fill="#47c1a5" fill-opacity="0.68" /><circle cx="630.54" cy="628.88" r="2.2" fill="#2680ae" fill-opacity="0.68" /><circle cx="639.87" cy="614.29" r="2.2" fill="#278baf" fill-opacity="0.68" /><circle cx="647.10" cy="628.49" r="2.2" fill="#257aad" fill-opacity="0.68" /><circle cx="574.71" cy="542.34" r="2.2" fill="#43c2a8" fill-opacity="0.68" /><circle cx="576.68" cy="541.57" r="2.2" fill="#46c1a6" fill-opacity="0.68" /><circle cx="585.40" cy="559.60" r="2.2" fill="#2dbbb5" fill-opacity="0.68" /><circle cx="537.39" cy="561.06" r="2.2" fill="#2ec1b6" fill-opacity="0.68" /><circle cx="521.49" cy="510.14" r="2.2" fill="#83bb7c" fill-opacity="0.68" /><circle cx="584.37" cy="568.76" r="2.2" fill="#2cb1b4" fill-opacity="0.68" /><circle cx="583.69" cy="576.28" r="2.2" fill="#2db8b5" fill-opacity="0.68" /><circle cx="626.41" cy="614.00" r="2.2" fill="#2890b0" fill-opacity="0.68" /><circle cx="594.24" cy="587.58" r="2.2" fill="#2aa4b2" fill-opacity="0.68" /><circle cx="564.39" cy="540.20" r="2.2" fill="#35c3b1" fill-opacity="0.68" /><circle cx="548.73" cy="520.48" r="2.2" fill="#6abd8d" fill-opacity="0.68" /><circle cx="536.46" cy="551.81" r="2.2" fill="#32c4b3" fill-opacity="0.68" /><circle cx="633.51" cy="619.74" r="2.2" fill="#288baf" fill-opacity="0.68" /><circle cx="655.11" cy="624.53" r="2.2" fill="#267cad" fill-opacity="0.68" /><circle cx="656.44" cy="619.49" r="2.2" fill="#2682ae" fill-opacity="0.68" /><circle cx="493.44" cy="535.54" r="2.2" fill="#6bbd8c" fill-opacity="0.68" /><circle cx="641.74" cy="631.01" r="2.2" fill="#267bad" fill-opacity="0.68" /><circle cx="633.51" cy="638.59" r="2.2" fill="#267dad" fill-opacity="0.68" /><circle cx="622.26" cy="615.98" r="2.2" fill="#2995b0" fill-opacity="0.68" /><circle cx="648.95" cy="615.34" r="2.2" fill="#288caf" fill-opacity="0.68" /><circle cx="653.51" cy="615.21" r="2.2" fill="#288caf" fill-opacity="0.68" /><circle cx="663.55" cy="624.53" r="2.2" fill="#267ead" fill-opacity="0.68" /><circle cx="589.01" cy="595.79" r="2.2" fill="#2bacb3" fill-opacity="0.68" /><circle cx="621.54" cy="583.12" r="2.2" fill="#2aa4b2" fill-opacity="0.68" /><circle cx="644.97" cy="608.97" r="2.2" fill="#288eaf" fill-opacity="0.68" /><circle cx="650.21" cy="616.95" r="2.2" fill="#2787ae" fill-opacity="0.68" /><circle cx="567.59" cy="551.59" r="2.2" fill="#2ec0b6" fill-opacity="0.68" /><circle cx="555.51" cy="584.68" r="2.2" fill="#2cb1b4" fill-opacity="0.68" /><circle cx="552.40" cy="550.96" r="2.2" fill="#40c2aa" fill-opacity="0.68" /><circle cx="527.18" cy="550.18" r="2.2" fill="#2fc4b5" fill-opacity="0.68" /><circle cx="527.92" cy="555.73" r="2.2" fill="#2ec0b5" fill-opacity="0.68" /><circle cx="165.14" cy="157.66" r="2.2" fill="#e65b44" fill-opacity="0.68" /><circle cx="126.47" cy="140.73" r="2.2" fill="#e96a40" fill-opacity="0.68" /><circle cx="384.64" cy="48.00" r="2.2" fill="#f19235" fill-opacity="0.68" /><circle cx="213.02" cy="214.90" r="2.2" fill="#e34b49" fill-opacity="0.68" /><circle cx="385.13" cy="80.97" r="2.2" fill="#ea6e3f" fill-opacity="0.68" /><circle cx="452.44" cy="178.76" r="2.2" fill="#e03c4d" fill-opacity="0.68" /><circle cx="198.40" cy="215.82" r="2.2" fill="#e2444b" fill-opacity="0.68" /><circle cx="394.57" cy="117.38" r="2.2" fill="#e96b40" fill-opacity="0.68" /><circle cx="407.02" cy="125.71" r="2.2" fill="#e76143" fill-opacity="0.68" /><circle cx="359.22" cy="101.51" r="2.2" fill="#ea713e" fill-opacity="0.68" /><circle cx="173.33" cy="132.09" r="2.2" fill="#e96841" fill-opacity="0.68" /><circle cx="70.00" cy="250.56" r="2.2" fill="#d81159" fill-opacity="0.68" /><circle cx="566.16" cy="176.26" r="2.2" fill="#d91757" fill-opacity="0.68" /><circle cx="313.36" cy="264.17" r="2.2" fill="#e75e43" fill-opacity="0.68" /><circle cx="320.18" cy="240.02" r="2.2" fill="#e65b44" fill-opacity="0.68" /><circle cx="596.55" cy="642.55" r="2.2" fill="#2681ae" fill-opacity="0.68" /><circle cx="641.22" cy="624.05" r="2.2" fill="#2785ae" fill-opacity="0.68" /><circle cx="647.36" cy="620.92" r="2.2" fill="#2785ae" fill-opacity="0.68" /><circle cx="560.35" cy="549.77" r="2.2" fill="#40c2aa" fill-opacity="0.68" /><circle cx="554.04" cy="575.10" r="2.2" fill="#2dbdb5" fill-opacity="0.68" /><circle cx="627.11" cy="599.44" r="2.2" fill="#2aa2b2" fill-opacity="0.68" /><circle cx="603.77" cy="619.69" r="2.2" fill="#288caf" fill-opacity="0.68" /><circle cx="561.37" cy="567.33" r="2.2" fill="#2ec2b6" fill-opacity="0.68" /><circle cx="603.09" cy="603.97" r="2.2" fill="#2a9eb1" fill-opacity="0.68" /><circle cx="627.77" cy="609.37" r="2.2" fill="#2994b0" fill-opacity="0.68" /><circle cx="690.00" cy="627.50" r="2.2" fill="#267dad" fill-opacity="0.68" /><circle cx="622.59" cy="597.01" r="2.2" fill="#2aa5b2" fill-opacity="0.68" /><circle cx="663.68" cy="615.58" r="2.2" fill="#278baf" fill-opacity="0.68" /><circle cx="623.05" cy="622.09" r="2.2" fill="#288daf" fill-opacity="0.68" /><circle cx="584.48" cy="543.62" r="2.2" fill="#2fc4b5" fill-opacity="0.68" /><circle cx="553.89" cy="563.76" r="2.2" fill="#2dbbb5" fill-opacity="0.68" /><circle cx="581.57" cy="550.74" r="2.2" fill="#32c4b4" fill-opacity="0.68" /><circle cx="588.12" cy="577.18" r="2.2" fill="#2cb2b4" fill-opacity="0.68" /><circle cx="583.10" cy="580.32" r="2.2" fill="#2cb3b4" fill-opacity="0.68" /><circle cx="657.20" cy="628.12" r="2.2" fill="#267dad" fill-opacity="0.68" /><circle cx="601.92" cy="598.20" r="2.2" fill="#299db1" fill-opacity="0.68" /><circle cx="641.89" cy="632.63" r="2.2" fill="#2682ae" fill-opacity="0.68" /><circle cx="649.51" cy="633.78" r="2.2" fill="#267cad" fill-opacity="0.68" /><circle cx="667.12" cy="620.41" r="2.2" fill="#2682ae" fill-opacity="0.68" /><circle cx="629.45" cy="636.42" r="2.2" fill="#267dad" fill-opacity="0.68" /><circle cx="688.70" cy="622.95" r="2.2" fill="#267bad" fill-opacity="0.68" /><circle cx="655.47" cy="625.53" r="2.2" fill="#2681ae" fill-opacity="0.68" /><circle cx="671.60" cy="650.00" r="2.2" fill="#2364aa" fill-opacity="0.68" /><circle cx="677.89" cy="612.82" r="2.2" fill="#278aaf" fill-opacity="0.68" /><circle cx="616.42" cy="604.56" r="2.2" fill="#2a9fb1" fill-opacity="0.68" /><circle cx="547.98" cy="559.24" r="2.2" fill="#2dbdb5" fill-opacity="0.68" /><circle cx="580.98" cy="551.56" r="2.2" fill="#2ec1b6" fill-opacity="0.68" /><circle cx="603.66" cy="578.40" r="2.2" fill="#2cafb3" fill-opacity="0.68" /><circle cx="544.95" cy="585.05" r="2.2" fill="#2baab3" fill-opacity="0.68" /><circle cx="619.56" cy="606.04" r="2.2" fill="#2aa2b2" fill-opacity="0.68" /><circle cx="624.87" cy="597.13" r="2.2" fill="#2aa2b2" fill-opacity="0.68" /><circle cx="581.76" cy="553.13" r="2.2" fill="#2ec3b6" fill-opacity="0.68" /><circle cx="640.03" cy="611.29" r="2.2" fill="#2998b0" fill-opacity="0.68" /><circle cx="593.25" cy="603.17" r="2.2" fill="#2aa0b1" fill-opacity="0.68" /><circle cx="629.23" cy="592.08" r="2.2" fill="#299cb1" fill-opacity="0.68" /><circle cx="593.09" cy="587.02" r="2.2" fill="#2babb3" fill-opacity="0.68" /><circle cx="594.86" cy="588.96" r="2.2" fill="#2ba9b3" fill-opacity="0.68" /><circle cx="618.08" cy="621.39" r="2.2" fill="#288baf" fill-opacity="0.68" /><circle cx="287.86" cy="156.17" r="2.2" fill="#e86342" fill-opacity="0.68" /><circle cx="329.13" cy="156.24" r="2.2" fill="#e75e43" fill-opacity="0.68" /><circle cx="337.59" cy="174.31" r="2.2" fill="#e65945" fill-opacity="0.68" /><circle cx="323.43" cy="216.81" r="2.2" fill="#e65d44" fill-opacity="0.68" /><circle cx="320.15" cy="188.74" r="2.2" fill="#e76043" fill-opacity="0.68" /><circle cx="302.71" cy="176.58" r="2.2" fill="#e75e43" fill-opacity="0.68" /><circle cx="328.19" cy="196.51" r="2.2" fill="#e55446" fill-opacity="0.68" /><circle cx="324.49" cy="197.04" r="2.2" fill="#e65b44" fill-opacity="0.68" /><circle cx="307.69" cy="157.74" r="2.2" fill="#e86641" fill-opacity="0.68" /><circle cx="337.43" cy="282.58" r="2.2" fill="#e65945" fill-opacity="0.68" /><circle cx="399.96" cy="262.13" r="2.2" fill="#e65945" fill-opacity="0.68" /><circle cx="339.40" cy="189.37" r="2.2" fill="#e75e43" fill-opacity="0.68" /><circle cx="335.02" cy="247.53" r="2.2" fill="#e65c44" fill-opacity="0.68" /><circle cx="270.13" cy="133.13" r="2.2" fill="#e96b40" fill-opacity="0.68" /><circle cx="310.62" cy="200.74" r="2.2" fill="#e65945" fill-opacity="0.68" /><circle cx="351.67" cy="195.42" r="2.2" fill="#e55745" fill-opacity="0.68" /><circle cx="324.70" cy="230.54" r="2.2" fill="#e65945" fill-opacity="0.68" /><circle cx="316.49" cy="175.92" r="2.2" fill="#e65845" fill-opacity="0.68" /><circle cx="363.58" cy="213.77" r="2.2" fill="#e65845" fill-opacity="0.68" /><circle cx="346.19" cy="236.62" r="2.2" fill="#e65a44" fill-opacity="0.68" /><circle cx="334.61" cy="240.79" r="2.2" fill="#e55646" fill-opacity="0.68" /><circle cx="317.89" cy="169.88" r="2.2" fill="#e65c44" fill-opacity="0.68" /><circle cx="359.93" cy="221.93" r="2.2" fill="#e55646" fill-opacity="0.68" /><circle cx="348.70" cy="224.01" r="2.2" fill="#e55546" fill-opacity="0.68" /><circle cx="406.33" cy="278.31" r="2.2" fill="#e96841" fill-opacity="0.68" /><circle cx="326.54" cy="113.44" r="2.2" fill="#e96a40" fill-opacity="0.68" /><circle cx="217.94" cy="91.05" r="2.2" fill="#ee8439" fill-opacity="0.68" /><circle cx="360.55" cy="240.94" r="2.2" fill="#e55646" fill-opacity="0.68" /><circle cx="301.45" cy="159.09" r="2.2" fill="#e65a44" fill-opacity="0.68" /><circle cx="332.59" cy="206.48" r="2.2" fill="#e45147" fill-opacity="0.68" /><circle cx="302.08" cy="162.78" r="2.2" fill="#e65a44" fill-opacity="0.68" /><circle cx="329.12" cy="213.69" r="2.2" fill="#e45247" fill-opacity="0.68" /><circle cx="317.45" cy="144.46" r="2.2" fill="#e76242" fill-opacity="0.68" /><circle cx="362.23" cy="220.74" r="2.2" fill="#e65845" fill-opacity="0.68" /><circle cx="310.79" cy="178.35" r="2.2" fill="#e55646" fill-opacity="0.68" /><circle cx="337.64" cy="223.30" r="2.2" fill="#e45047" fill-opacity="0.68" /><circle cx="318.87" cy="194.43" r="2.2" fill="#e65845" fill-opacity="0.68" /><circle cx="308.30" cy="197.81" r="2.2" fill="#e55845" fill-opacity="0.68" /><circle cx="349.23" cy="202.06" r="2.2" fill="#e65a44" fill-opacity="0.68" /><circle cx="316.75" cy="163.51" r="2.2" fill="#e65d44" fill-opacity="0.68" /><circle cx="312.77" cy="171.37" r="2.2" fill="#e65c44" fill-opacity="0.68" /><circle cx="337.69" cy="181.39" r="2.2" fill="#e55745" fill-opacity="0.68" /><circle cx="303.79" cy="183.56" r="2.2" fill="#e55745" fill-opacity="0.68" /><circle cx="303.66" cy="185.65" r="2.2" fill="#e65d44" fill-opacity="0.68" /><circle cx="341.61" cy="201.97" r="2.2" fill="#e55546" fill-opacity="0.68" /><circle cx="351.38" cy="194.04" r="2.2" fill="#e75e43" fill-opacity="0.68" /><circle cx="320.71" cy="152.01" r="2.2" fill="#e86741" fill-opacity="0.68" /><circle cx="306.94" cy="123.61" r="2.2" fill="#e96741" fill-opacity="0.68" /><circle cx="312.40" cy="174.14" r="2.2" fill="#e65b44" fill-opacity="0.68" /><circle cx="325.17" cy="169.72" r="2.2" fill="#e76043" fill-opacity="0.68" /><circle cx="313.19" cy="138.25" r="2.2" fill="#e96841" fill-opacity="0.68" /><circle cx="211.61" cy="97.91" r="2.2" fill="#f08d36" fill-opacity="0.68" /><circle cx="329.66" cy="153.96" r="2.2" fill="#e86541" fill-opacity="0.68" /><circle cx="288.36" cy="143.95" r="2.2" fill="#e96741" fill-opacity="0.68" /><circle cx="284.38" cy="147.77" r="2.2" fill="#e86342" fill-opacity="0.68" /><circle cx="325.42" cy="216.11" r="2.2" fill="#e75e43" fill-opacity="0.68" /><circle cx="335.46" cy="196.40" r="2.2" fill="#e65c44" fill-opacity="0.68" /><circle cx="294.89" cy="147.76" r="2.2" fill="#e65845" fill-opacity="0.68" /><circle cx="330.74" cy="167.89" r="2.2" fill="#e65945" fill-opacity="0.68" /><circle cx="323.54" cy="177.41" r="2.2" fill="#e76143" fill-opacity="0.68" /><circle cx="254.32" cy="96.81" r="2.2" fill="#ec7c3b" fill-opacity="0.68" /><circle cx="367.28" cy="224.14" r="2.2" fill="#e55546" fill-opacity="0.68" /><circle cx="323.05" cy="161.86" r="2.2" fill="#e86342" fill-opacity="0.68" /><circle cx="269.37" cy="91.01" r="2.2" fill="#ed7e3b" fill-opacity="0.68" /><circle cx="353.57" cy="235.59" r="2.2" fill="#e65845" fill-opacity="0.68" /><circle cx="359.95" cy="260.49" r="2.2" fill="#e65945" fill-opacity="0.68" /><circle cx="343.48" cy="280.44" r="2.2" fill="#e65c44" fill-opacity="0.68" /><circle cx="362.17" cy="251.59" r="2.2" fill="#e44f48" fill-opacity="0.68" /><circle cx="332.14" cy="178.38" r="2.2" fill="#e65c44" fill-opacity="0.68" /><circle cx="302.03" cy="168.80" r="2.2" fill="#e75e44" fill-opacity="0.68" /><circle cx="321.04" cy="156.47" r="2.2" fill="#e86242" fill-opacity="0.68" /><circle cx="350.47" cy="208.07" r="2.2" fill="#e55546" fill-opacity="0.68" /><circle cx="337.93" cy="279.46" r="2.2" fill="#e75e44" fill-opacity="0.68" /><circle cx="368.94" cy="250.36" r="2.2" fill="#e55745" fill-opacity="0.68" /><circle cx="341.73" cy="193.62" r="2.2" fill="#e55446" fill-opacity="0.68" /><circle cx="318.94" cy="207.75" r="2.2" fill="#e76242" fill-opacity="0.68" /><circle cx="321.83" cy="178.09" r="2.2" fill="#e76143" fill-opacity="0.68" /><circle cx="316.45" cy="206.40" r="2.2" fill="#e45147" fill-opacity="0.68" /><circle cx="337.63" cy="196.94" r="2.2" fill="#e45247" fill-opacity="0.68" /><circle cx="302.36" cy="131.21" r="2.2" fill="#e86442" fill-opacity="0.68" /><circle cx="344.51" cy="211.82" r="2.2" fill="#e45047" fill-opacity="0.68" /><circle cx="307.33" cy="162.52" r="2.2" fill="#e65d44" fill-opacity="0.68" /><circle cx="324.94" cy="205.55" r="2.2" fill="#e65b44" fill-opacity="0.68" /><circle cx="336.96" cy="205.17" r="2.2" fill="#e75d44" fill-opacity="0.68" /><circle cx="318.36" cy="122.81" r="2.2" fill="#eb723e" fill-opacity="0.68" /><circle cx="327.53" cy="185.54" r="2.2" fill="#e86442" fill-opacity="0.68" /><circle cx="354.00" cy="203.71" r="2.2" fill="#e65a45" fill-opacity="0.68" /><circle cx="339.61" cy="255.56" r="2.2" fill="#e55745" fill-opacity="0.68" /><circle cx="335.73" cy="214.75" r="2.2" fill="#e44f48" fill-opacity="0.68" /><circle cx="315.59" cy="182.79" r="2.2" fill="#e55646" fill-opacity="0.68" /><circle cx="323.03" cy="168.19" r="2.2" fill="#e65845" fill-opacity="0.68" /><circle cx="342.11" cy="248.62" r="2.2" fill="#e55546" fill-opacity="0.68" /><circle cx="370.70" cy="276.44" r="2.2" fill="#e86342" fill-opacity="0.68" /><circle cx="310.24" cy="213.88" r="2.2" fill="#e34c48" fill-opacity="0.68" /><circle cx="301.29" cy="194.56" r="2.2" fill="#e65c44" fill-opacity="0.68" /><circle cx="332.73" cy="174.88" r="2.2" fill="#e65b44" fill-opacity="0.68" /><circle cx="334.10" cy="207.10" r="2.2" fill="#e55546" fill-opacity="0.68" /><circle cx="285.84" cy="87.10" r="2.2" fill="#eb733e" fill-opacity="0.68" /><circle cx="552.13" cy="558.81" r="2.2" fill="#4dc1a1" fill-opacity="0.68" /><circle cx="589.52" cy="538.67" r="2.2" fill="#50c09f" fill-opacity="0.68" /><circle cx="580.52" cy="546.28" r="2.2" fill="#42c2a8" fill-opacity="0.68" /><circle cx="572.83" cy="568.10" r="2.2" fill="#2ec3b6" fill-opacity="0.68" /><circle cx="564.46" cy="573.38" r="2.2" fill="#2ec2b6" fill-opacity="0.68" /><circle cx="548.11" cy="574.32" r="2.2" fill="#2db8b5" fill-opacity="0.68" /><circle cx="618.49" cy="581.57" r="2.2" fill="#2caeb3" fill-opacity="0.68" /><circle cx="565.52" cy="568.58" r="2.2" fill="#2dbab5" fill-opacity="0.68" /><circle cx="582.77" cy="592.72" r="2.2" fill="#2ba6b2" fill-opacity="0.68" /><circle cx="621.23" cy="620.13" r="2.2" fill="#288faf" fill-opacity="0.68" /><circle cx="619.46" cy="584.04" r="2.2" fill="#2cb1b4" fill-opacity="0.68" /><circle cx="574.44" cy="589.89" r="2.2" fill="#2ba8b2" fill-opacity="0.68" /><circle cx="619.25" cy="591.26" r="2.2" fill="#2998b1" fill-opacity="0.68" /><circle cx="581.59" cy="598.20" r="2.2" fill="#2a9eb1" fill-opacity="0.68" /><circle cx="608.72" cy="594.29" r="2.2" fill="#2ba6b2" fill-opacity="0.68" /><circle cx="649.55" cy="626.96" r="2.2" fill="#2682ae" fill-opacity="0.68" /><circle cx="623.59" cy="627.29" r="2.2" fill="#2683ae" fill-opacity="0.68" /><circle cx="609.34" cy="586.91" r="2.2" fill="#2ba8b3" fill-opacity="0.68" /><circle cx="618.02" cy="630.87" r="2.2" fill="#2681ae" fill-opacity="0.68" /><circle cx="678.90" cy="596.04" r="2.2" fill="#2682ae" fill-opacity="0.68" /><circle cx="663.57" cy="568.08" r="2.2" fill="#299ab1" fill-opacity="0.68" /><circle cx="663.53" cy="572.60" r="2.2" fill="#2997b0" fill-opacity="0.68" /><circle cx="571.52" cy="624.15" r="2.2" fill="#288daf" fill-opacity="0.68" /><circle cx="536.02" cy="600.85" r="2.2" fill="#2997b0" fill-opacity="0.68" /><circle cx="649.08" cy="564.60" r="2.2" fill="#2aa1b2" fill-opacity="0.68" /><circle cx="531.02" cy="592.24" r="2.2" fill="#2aa2b2" fill-opacity="0.68" /><circle cx="671.05" cy="585.92" r="2.2" fill="#278aaf" fill-opacity="0.68" /><circle cx="685.96" cy="597.23" r="2.2" fill="#267cad" fill-opacity="0.68" /><circle cx="618.32" cy="592.38" r="2.2" fill="#2aa3b2" fill-opacity="0.68" /><circle cx="543.12" cy="546.37" r="2.2" fill="#41c2a9" fill-opacity="0.68" /><circle cx="554.58" cy="545.92" r="2.2" fill="#36c3b0" fill-opacity="0.68" /><circle cx="545.94" cy="539.58" r="2.2" fill="#44c2a7" fill-opacity="0.68" /><circle cx="588.09" cy="564.50" r="2.2" fill="#2db8b5" fill-opacity="0.68" /><circle cx="573.01" cy="561.85" r="2.2" fill="#2db9b5" fill-opacity="0.68" /><circle cx="566.11" cy="545.23" r="2.2" fill="#39c3ae" fill-opacity="0.68" /><circle cx="574.73" cy="573.16" r="2.2" fill="#2cb1b4" fill-opacity="0.68" /><circle cx="575.51" cy="569.34" r="2.2" fill="#2dbab5" fill-opacity="0.68" /><circle cx="572.06" cy="564.54" r="2.2" fill="#2dbcb5" fill-opacity="0.68" /><circle cx="544.99" cy="530.70" r="2.2" fill="#5fbf94" fill-opacity="0.68" /><circle cx="542.71" cy="551.88" r="2.2" fill="#2ec3b6" fill-opacity="0.68" /><circle cx="559.33" cy="537.92" r="2.2" fill="#4bc1a2" fill-opacity="0.68" /><circle cx="564.88" cy="552.79" r="2.2" fill="#2ec2b6" fill-opacity="0.68" /><circle cx="602.22" cy="593.16" r="2.2" fill="#2aa1b2" fill-opacity="0.68" /><circle cx="599.02" cy="591.08" r="2.2" fill="#2aa1b2" fill-opacity="0.68" /><circle cx="613.71" cy="602.11" r="2.2" fill="#2999b1" fill-opacity="0.68" /><circle cx="596.53" cy="596.31" r="2.2" fill="#2aa0b1" fill-opacity="0.68" /><circle cx="528.45" cy="566.70" r="2.2" fill="#3ac3ae" fill-opacity="0.68" /><circle cx="605.96" cy="546.62" r="2.2" fill="#40c2a9" fill-opacity="0.68" /><circle cx="596.25" cy="596.79" r="2.2" fill="#2aa2b2" fill-opacity="0.68" /><circle cx="522.00" cy="525.17" r="2.2" fill="#6bbd8c" fill-opacity="0.68" /><circle cx="522.12" cy="558.67" r="2.2" fill="#39c3ae" fill-opacity="0.68" /><circle cx="514.58" cy="553.57" r="2.2" fill="#44c2a7" fill-opacity="0.68" /><circle cx="493.74" cy="526.16" r="2.2" fill="#73bc86" fill-opacity="0.68" /><circle cx="492.96" cy="528.82" r="2.2" fill="#75bc86" fill-opacity="0.68" /><circle cx="531.19" cy="539.80" r="2.2" fill="#46c1a6" fill-opacity="0.68" /><circle cx="494.35" cy="501.79" r="2.2" fill="#a1b767" fill-opacity="0.68" /><circle cx="575.66" cy="562.49" r="2.2" fill="#2cb7b4" fill-opacity="0.68" /><circle cx="576.74" cy="560.74" r="2.2" fill="#2cb5b4" fill-opacity="0.68" /><circle cx="388.88" cy="539.71" r="2.2" fill="#9ab86c" fill-opacity="0.68" /><circle cx="570.37" cy="556.64" r="2.2" fill="#2dbdb5" fill-opacity="0.68" /><circle cx="568.47" cy="599.34" r="2.2" fill="#2cb0b3" fill-opacity="0.68" /><circle cx="563.02" cy="548.20" r="2.2" fill="#3cc2ad" fill-opacity="0.68" /><circle cx="549.18" cy="535.24" r="2.2" fill="#4ec0a0" fill-opacity="0.68" /><circle cx="567.43" cy="567.02" r="2.2" fill="#2cb5b4" fill-opacity="0.68" /><circle cx="554.39" cy="535.35" r="2.2" fill="#53c09c" fill-opacity="0.68" /><circle cx="558.07" cy="544.45" r="2.2" fill="#45c2a7" fill-opacity="0.68" /><circle cx="554.32" cy="550.56" r="2.2" fill="#3fc2ab" fill-opacity="0.68" /><circle cx="559.66" cy="544.59" r="2.2" fill="#38c3af" fill-opacity="0.68" /><circle cx="540.22" cy="552.46" r="2.2" fill="#3ac3ae" fill-opacity="0.68" /><circle cx="571.63" cy="579.57" r="2.2" fill="#2cb2b4" fill-opacity="0.68" />
<line x1="70" y1="650" x2="690" y2="650" stroke="#334155"/>
<line x1="70" y1="48" x2="70" y2="650" stroke="#334155"/>
<text x="350.0" y="696" font-size="13" font-family="Arial, sans-serif">pcoa_1</text>
<text transform="translate(22 389.0) rotate(-90)" font-size="13" font-family="Arial, sans-serif">pcoa_2</text>
<text x="698" y="48" font-size="13" font-family="Arial, sans-serif" font-weight="700">read_spread_l2</text>
<defs><linearGradient id="grad_read_spread_l2" x1="0%" y1="0%" x2="100%" y2="0%"><stop offset="0%" stop-color="#2364aa"/><stop offset="33%" stop-color="#2ec4b6"/><stop offset="66%" stop-color="#f6ae2d"/><stop offset="100%" stop-color="#d81159"/></linearGradient></defs><text x="698" y="62" font-size="13" font-family="Arial, sans-serif" font-weight="700">read_spread_l2</text><rect x="698" y="70" width="145" height="14" fill="url(#grad_read_spread_l2)" stroke="#64748b"/><text x="698" y="100" font-size="11" font-family="Arial, sans-serif">4</text><text x="807" y="100" font-size="11" font-family="Arial, sans-serif">4.84</text><text x="752.5" y="100" font-size="11" font-family="Arial, sans-serif">4.42</text>
</svg>
